<?xml version="1.0" standalone="no"?>
<!DOCTYPE svg PUBLIC "-//W3C//DTD SVG 20010904//EN"
 "http://www.w3.org/TR/2001/REC-SVG-20010904/DTD/svg10.dtd">
<svg version="1.0" xmlns="http://www.w3.org/2000/svg"
 width="200.000000pt" height="200.000000pt" viewBox="0 0 200.000000 200.000000"
 preserveAspectRatio="xMidYMid meet">
<metadata>
Created by potrace 1.14, written by Peter Selinger 2001-2017
</metadata>
<g transform="translate(0.000000,200.000000) scale(0.100000,-0.100000)"
fill="#000000" stroke="none">
<path d="M899 1996 c-2 -2 -27 -6 -54 -10 -28 -3 -72 -12 -98 -20 -26 -8 -47
-12 -47 -9 0 3 -6 1 -12 -4 -7 -6 -38 -20 -69 -31 -166 -61 -343 -208 -453
-376 -65 -100 -106 -193 -137 -311 -24 -89 -24 -95 -24 -612 0 -511 0 -522 21
-549 11 -15 33 -37 48 -48 27 -21 38 -21 539 -21 282 0 530 3 551 8 157 31
263 74 399 161 75 48 211 184 262 261 124 189 176 366 170 590 -6 291 -126
546 -345 733 -179 153 -379 230 -621 238 -69 2 -127 3 -130 0z m-324 -932 c89
-42 80 -183 -13 -215 -97 -33 -185 56 -153 154 22 66 97 94 166 61z m469 5
c46 -17 71 -56 71 -109 0 -114 -129 -160 -205 -73 -28 31 -32 42 -27 78 10 90
79 134 161 104z m491 -5 c89 -42 80 -183 -13 -215 -100 -34 -190 64 -149 162
15 37 63 68 105 69 13 0 39 -7 57 -16z"/>
</g>
</svg>
